<svg width="32" height="32" viewBox="0 0 32 32" fill="none" xmlns="http://www.w3.org/2000/svg">
  <rect width="32" height="32" rx="6" fill="url(#gradient)"/>
  <path d="M16 8C12.5 8 10 10.5 10 14C10 17.5 12.5 20 16 20C19.5 20 22 17.5 22 14C22 10.5 19.5 8 16 8Z" fill="white" opacity="0.9"/>
  <path d="M16 11C14.3 11 13 12.3 13 14C13 15.7 14.3 17 16 17C17.7 17 19 15.7 19 14C19 12.3 17.7 11 16 11Z" fill="#ec4899"/>
  <path d="M12 22H20L18 24H14L12 22Z" fill="white" opacity="0.8"/>
  <defs>
    <linearGradient id="gradient" x1="0" y1="0" x2="32" y2="32" gradientUnits="userSpaceOnUse">
      <stop stop-color="#ec4899"/>
      <stop offset="1" stop-color="#db2777"/>
    </linearGradient>
  </defs>
</svg>
